<?xml version="1.0" standalone="no"?>
<!DOCTYPE svg PUBLIC "-//W3C//DTD SVG 20010904//EN"
 "http://www.w3.org/TR/2001/REC-SVG-20010904/DTD/svg10.dtd">
<svg version="1.0" xmlns="http://www.w3.org/2000/svg"
 width="300.000000pt" height="300.000000pt" viewBox="0 0 300.000000 300.000000"
 preserveAspectRatio="xMidYMid meet">
<metadata>
Created by potrace 1.14, written by Peter Selinger 2001-2017
</metadata>
<g transform="translate(0.000000,300.000000) scale(0.100000,-0.100000)"
fill="#000000" stroke="none">
<path d="M2345 2819 c-16 -5 -39 -11 -50 -14 -11 -2 -101 -27 -200 -55 -99
-28 -189 -53 -200 -56 -11 -2 -69 -18 -130 -34 -113 -32 -248 -69 -275 -76
-31 -7 -528 -145 -615 -170 -49 -14 -99 -27 -109 -30 -10 -2 -33 -8 -51 -14
-18 -6 -41 -12 -51 -15 -10 -2 -65 -17 -122 -33 -159 -45 -187 -85 -150 -215
11 -40 21 -79 23 -87 2 -8 13 -45 24 -82 l19 -67 -31 -7 c-18 -3 -50 -12 -72
-19 -22 -7 -71 -22 -110 -34 -57 -16 -74 -27 -92 -54 -13 -18 -23 -46 -23 -63
0 -16 34 -153 76 -304 41 -151 82 -297 89 -325 7 -27 44 -158 80 -290 37 -132
71 -258 77 -279 18 -76 67 -126 125 -126 10 0 108 25 218 55 110 31 207 57
215 59 8 2 56 15 107 29 l92 25 74 -56 c41 -31 89 -68 107 -82 29 -22 170
-131 210 -163 77 -61 100 -78 100 -75 0 1 51 131 113 288 l113 285 99 28 c55
16 109 30 120 33 11 3 106 28 210 58 279 77 285 86 221 321 -19 68 -37 129
-40 134 -10 15 16 27 141 61 193 52 207 79 150 286 -20 71 -43 154 -51 184 -8
30 -50 186 -94 345 -44 160 -92 333 -106 385 -54 197 -61 215 -101 240 -34 21
-80 24 -130 9z"/>
</g>
</svg>
