<svg width="84" height="53" viewBox="0 0 84 53" fill="none" xmlns="http://www.w3.org/2000/svg">
<path d="M9.07074 34.1503C12.2722 34.1503 14.7177 34.8706 16.4074 36.3112C18.097 37.7296 18.9418 39.9238 18.9418 42.8936V52.6676H11.9387V50.2739C11.0716 52.0913 9.34865 53 6.76971 53C5.32462 53 4.09073 52.7562 3.06805 52.2686C2.0676 51.7589 1.30058 51.0829 0.767012 50.2407C0.25567 49.3763 0 48.4122 0 47.3484C0 45.5532 0.689199 44.1902 2.0676 43.2593C3.44599 42.3285 5.53582 41.863 8.33708 41.863H11.3718C11.1272 40.4446 9.98227 39.7354 7.9369 39.7354C7.11431 39.7354 6.2806 39.8684 5.43578 40.1343C4.59095 40.3781 3.86841 40.7216 3.26814 41.1649L0.867056 36.2114C1.91197 35.5687 3.16809 35.07 4.63542 34.7154C6.12498 34.3387 7.60342 34.1503 9.07074 34.1503ZM9.0374 48.4787C9.57097 48.4787 10.049 48.3347 10.4714 48.0465C10.8938 47.7584 11.205 47.3262 11.4051 46.75V45.4867H9.53762C8.0036 45.4867 7.23659 45.9965 7.23659 47.016C7.23659 47.4371 7.39221 47.7917 7.70346 48.0798C8.03695 48.3457 8.48159 48.4787 9.0374 48.4787Z" fill="#3E7CF4"/>
<path d="M22.199 28H29.7358V52.6676H22.199V28Z" fill="#3E7CF4"/>
<path d="M52.4851 43.5585C52.4851 43.6693 52.4517 44.2566 52.385 45.3205H39.7126C39.9794 46.0075 40.4241 46.5394 41.0466 46.9162C41.6691 47.2708 42.4472 47.4481 43.381 47.4481C44.1813 47.4481 44.8483 47.3484 45.3819 47.1489C45.9377 46.9495 46.5379 46.6059 47.1827 46.1184L51.1178 50.0745C49.3392 52.0248 46.6824 53 43.1475 53C40.9465 53 39.0123 52.6011 37.3449 51.8032C35.6775 50.9832 34.388 49.8528 33.4765 48.4122C32.565 46.9716 32.1092 45.3537 32.1092 43.5585C32.1092 41.7411 32.5539 40.1232 33.4432 38.7048C34.3547 37.2642 35.5886 36.1449 37.1448 35.3471C38.7233 34.5492 40.4908 34.1503 42.4472 34.1503C44.2925 34.1503 45.971 34.516 47.4828 35.2473C49.0168 35.9787 50.2285 37.0536 51.1178 38.4721C52.0293 39.8905 52.4851 41.586 52.4851 43.5585ZM42.5139 39.2699C41.7358 39.2699 41.091 39.4805 40.5797 39.9016C40.0684 40.3227 39.7349 40.9211 39.5793 41.6968H45.4486C45.2929 40.9433 44.9594 40.3559 44.4481 39.9348C43.9368 39.4916 43.292 39.2699 42.5139 39.2699Z" fill="#3E7CF4"/>
<path d="M62.0334 36.4441C63.3673 34.9149 65.3348 34.1503 67.936 34.1503V40.7992C67.3357 40.7106 66.7799 40.6662 66.2686 40.6662C63.6897 40.6662 62.4002 41.9738 62.4002 44.5891V52.6676H54.8635V34.4827H62.0334V36.4441Z" fill="#3E7CF4"/>
<path d="M84 52.0359C82.8662 52.6786 81.321 53 79.3646 53C76.8079 53 74.8403 52.3905 73.4619 51.1715C72.0835 49.9304 71.3943 48.0798 71.3943 45.6197V40.9654H68.8932V35.4801H71.3943V30.3936H78.9311V35.4801H82.6661V40.9654H78.9311V45.5532C78.9311 46.1073 79.0756 46.5395 79.3646 46.8497C79.6536 47.16 80.0316 47.3152 80.4984 47.3152C81.1432 47.3152 81.7101 47.1489 82.1992 46.8165L84 52.0359Z" fill="#3E7CF4"/>
<path d="M66.9566 23.9393H49.0466L41.5653 30.6056L34.0839 23.9393H16.1739C15.3321 23.9393 14.5248 23.6024 13.9296 23.0029C13.3344 22.4034 13 21.5902 13 20.7424V3.19688C13 2.34901 13.3344 1.53587 13.9296 0.936344C14.5248 0.336813 15.3321 0 16.1739 0H66.9566C67.7984 0 68.6057 0.336813 69.2009 0.936344C69.7961 1.53587 70.1305 2.34901 70.1305 3.19688V20.7424C70.1305 21.5902 69.7961 22.4034 69.2009 23.0029C68.6057 23.6024 67.7984 23.9393 66.9566 23.9393Z" fill="url(#paint0_linear_22_14)"/>
<path d="M17 4.64073H21.3035L22.5467 13.5852L23.8282 7.02456H28.2847L29.5853 13.5852L30.8285 4.64073H35.132L32.1482 18.6585H27.6917L26.066 11.1199L24.4402 18.6585H19.9837L17 4.64073Z" fill="white"/>
<path d="M52.5444 18.8215C51.0781 18.8215 50.0389 18.1355 49.4268 16.7636V18.6585H45.372V5.23159L49.4268 4.59998V10.366C49.7456 9.6461 50.16 9.12315 50.67 8.79715C51.1801 8.47116 51.7985 8.30816 52.5253 8.30816C53.3796 8.30816 54.1638 8.53907 54.8779 9.0009C55.6047 9.44914 56.1721 10.074 56.5801 10.8754C57.0009 11.6768 57.2113 12.5733 57.2113 13.5648C57.2113 14.5428 56.9945 15.4325 56.561 16.2339C56.1402 17.0353 55.5664 17.6669 54.8396 18.1287C54.1256 18.5906 53.3605 18.8215 52.5444 18.8215ZM51.3203 15.6023C51.8431 15.6023 52.2894 15.3985 52.6592 14.991C53.029 14.5836 53.2139 14.1081 53.2139 13.5648C53.2139 12.9943 53.0226 12.5121 52.6401 12.1182C52.2703 11.7243 51.8304 11.5274 51.3203 11.5274C50.7975 11.5274 50.3513 11.7243 49.9815 12.1182C49.6117 12.4985 49.4268 12.9536 49.4268 13.4833V13.5648C49.4268 14.1353 49.6117 14.6175 49.9815 15.0114C50.364 15.4053 50.8103 15.6023 51.3203 15.6023Z" fill="white"/>
<path d="M61.0344 18.8826C59.6445 18.8826 58.363 18.6177 57.1899 18.088L57.8211 15.0929C58.8284 15.5276 59.7656 15.7449 60.6327 15.7449C61.6783 15.7449 62.2011 15.3306 62.2011 14.5021C62.2011 13.918 61.9333 13.5037 61.3978 13.2592C60.8622 13.0147 59.9696 12.8925 58.72 12.8925V10.366C59.8549 10.366 60.7028 10.2438 61.2639 9.99926C61.8377 9.75476 62.1246 9.40839 62.1246 8.96015C62.1246 8.34891 61.6337 8.04329 60.6518 8.04329C59.721 8.04329 58.7583 8.2742 57.7637 8.73603L57.0178 5.96508C58.4204 5.23159 59.8931 4.86485 61.436 4.86485C62.6091 4.86485 63.5591 5.16367 64.2859 5.76133C65.0254 6.35899 65.3952 7.17397 65.3952 8.20629C65.3952 8.87186 65.2294 9.47631 64.8979 10.0196C64.5791 10.563 64.1456 10.9976 63.5973 11.3236C64.3241 11.6768 64.8979 12.159 65.3187 12.7702C65.7522 13.3814 65.969 14.0606 65.969 14.8077C65.969 15.6362 65.7586 16.3561 65.3378 16.9674C64.9298 17.5786 64.3496 18.054 63.5973 18.3936C62.8577 18.7196 62.0034 18.8826 61.0344 18.8826Z" fill="white"/>
<path d="M40.2461 18.7905C39.1877 18.7905 38.2442 18.5663 37.4153 18.1181C36.5993 17.6563 35.9617 17.0315 35.5027 16.2436C35.0437 15.4422 34.8141 14.539 34.8141 13.5338C34.8141 12.5015 35.05 11.5846 35.5218 10.7832C35.9936 9.98183 36.6312 9.3638 37.4345 8.92914C38.2378 8.49448 39.1304 8.27715 40.1122 8.27715C41.0558 8.27715 41.8591 8.50127 42.5221 8.94951C43.1979 9.38417 43.7016 9.98183 44.0331 10.7425C44.3647 11.4896 44.5304 12.3317 44.5304 13.2689C44.5304 13.5134 44.5177 13.69 44.4922 13.7987L38.7542 14.5933C38.9072 15.0687 39.1559 15.4151 39.5001 15.6324C39.8444 15.8361 40.2971 15.938 40.8581 15.938C41.7252 15.938 42.6624 15.7003 43.6697 15.2249L44.1479 17.9551C42.9621 18.512 41.6614 18.7905 40.2461 18.7905ZM41.5658 12.0261C41.3618 11.1703 40.8773 10.7425 40.1122 10.7425C39.6532 10.7425 39.2898 10.9259 39.022 11.2926C38.7542 11.6593 38.6139 12.1348 38.6012 12.7188L41.5658 12.0261Z" fill="white"/>
<defs>
<linearGradient id="paint0_linear_22_14" x1="41.5653" y1="-14.4233" x2="41.5653" y2="36.7268" gradientUnits="userSpaceOnUse">
<stop stop-color="#FF6E3F"/>
<stop offset="1" stop-color="#FF4040"/>
</linearGradient>
</defs>
</svg>
